<svg viewBox="0 0 140 48" fill="none" xmlns="http://www.w3.org/2000/svg">
    <path d="M35.6099 11.274C31.6903 9.16289 26.5019 8 21 8C15.4981 8 10.3097 9.16289 6.39009 11.274C2.46671 13.3876 0.223323 16.2297 0.0177644 19.3197H0V27.7449H0.0177644C0.00761329 27.9008 0 28.0567 0 28.2126C0 31.4828 2.26876 34.5063 6.39009 36.726C8.64616 37.9413 11.3222 38.8409 14.2369 39.3866V37.3049C11.675 36.7937 9.32882 35.9899 7.3481 34.9229C3.91958 33.0763 2.03148 30.693 2.03148 28.2113C2.03148 27.3398 2.26622 26.4798 2.71668 25.6517C3.69498 26.6191 4.92453 27.511 6.39009 28.3008C9.16006 29.7934 12.5657 30.8106 16.2671 31.2796V39.7048C17.8024 39.899 19.3873 40 21 40C22.6127 40 24.1989 39.899 25.7329 39.7048V31.2796C29.4343 30.8106 32.8399 29.7934 35.6099 28.3008C37.0755 27.511 38.305 26.6203 39.2833 25.6517C39.735 26.4811 39.9685 27.3398 39.9685 28.2113C39.9685 30.6917 38.0804 33.075 34.6519 34.9229C32.6712 35.9899 30.325 36.7937 27.7631 37.3049V39.3866C30.6778 38.8409 33.3538 37.94 35.6099 36.726C39.73 34.5063 42 31.4828 42 28.2126C42 28.0554 41.9937 27.8995 41.9822 27.7449H42V19.3197H41.9822C41.7767 16.2297 39.5333 13.3876 35.6099 11.274ZM23.7027 10.1456V29.4292C22.8145 29.4956 21.9123 29.5301 21 29.5301C20.0877 29.5301 19.1842 29.4943 18.2973 29.4292V10.1456C19.1855 10.0792 20.0877 10.0446 21 10.0446C21.9123 10.0446 22.8158 10.0804 23.7027 10.1456ZM7.34683 26.4989C5.94852 25.745 4.80653 24.9028 3.94369 24.0006C4.80653 23.0984 5.94852 22.2563 7.34683 21.5023C9.32755 20.4353 11.6737 19.6315 14.2356 19.1203V17.0386C11.321 17.5843 8.64489 18.4852 6.38882 19.6992C4.92326 20.489 3.69372 21.3809 2.71541 22.3483C2.26369 21.5189 2.03021 20.6602 2.03021 19.7874C2.03021 17.307 3.91831 14.9237 7.34683 13.0758C9.84145 11.7328 12.9109 10.8037 16.2658 10.3539V29.2196C12.9109 28.7698 9.84018 27.8407 7.34683 26.4977V26.4989ZM23.7027 37.8557C22.8145 37.9221 21.9123 37.9566 21 37.9566C20.0877 37.9566 19.1842 37.9221 18.2973 37.8557V31.4802C19.1868 31.5428 20.0889 31.5761 21 31.5761C21.9111 31.5761 22.8132 31.5441 23.7027 31.4802V37.8557ZM34.6532 26.4989C32.1586 27.842 29.0891 28.7711 25.7342 29.2209V10.3552C29.0891 10.805 32.1598 11.734 34.6532 13.0771C38.0817 14.9237 39.9698 17.307 39.9698 19.7887C39.9698 20.6602 39.735 21.5202 39.2846 22.3496C38.3063 21.3822 37.0767 20.4902 35.6112 19.7005C33.3551 18.4852 30.679 17.5856 27.7644 17.0399V19.1216C30.3263 19.6328 32.6724 20.4366 34.6532 21.5036C36.0515 22.2576 37.1935 23.0997 38.0563 24.0019C37.1935 24.9041 36.0515 25.7463 34.6532 26.5002V26.4989Z"
          />
    <path d="M84.3506 21.1484C88.1494 21.252 91.1924 23.8603 91.1924 27.0576C91.1922 30.2548 88.1527 32.8607 84.3564 32.9668C84.2757 32.9693 84.195 32.9707 84.1143 32.9707C82.0915 32.9707 80.267 32.2608 78.9775 31.126V37.9375H77.0361V21.3809H78.9775V22.9902C80.2683 21.8542 82.0915 21.1445 84.1143 21.1445C84.1938 21.1445 84.2723 21.1459 84.3506 21.1484ZM64.2129 17.5088C69.9206 17.8321 74.3924 20.8519 74.3926 24.5283C74.3926 28.2049 69.9207 31.2236 64.2129 31.5469V33.373H62.1777V31.5469C56.4712 31.2236 52 28.2061 52 24.5283C52.0002 20.8506 56.4713 17.8321 62.1777 17.5088V15.9336H64.2129V17.5088ZM92.9824 26.8691C93.4493 19.335 105.602 19.3981 106.317 26.5479C106.359 27.1251 106.331 27.4152 106.297 27.7422H94.8711C95.0468 28.9038 95.6855 29.9825 96.7373 30.4707C96.7386 30.4744 96.7409 30.4746 96.7422 30.4746C98.7721 31.8785 104.159 30.6498 104.607 30.5381C105.054 30.4269 105.331 30.3633 105.331 30.3633V32.0732C105.331 32.0732 103.141 32.8948 99.877 32.9102H99.7822C96.3588 32.9114 92.893 30.7386 92.9814 26.8691H92.9824ZM110.94 29.9902L120.205 21.3809H121.938V32.7334H119.996V24.1006L110.729 32.7334H108.998V21.3809H110.94V29.9902ZM132.561 27.8613L137.896 21.3809H140V32.7334H138.129V23.958L133.238 29.8242H131.882L126.992 23.958V32.7334H125.119V21.3809H127.226L132.561 27.8613ZM84.1143 22.7666C82.1752 22.7666 80.4859 23.6643 79.6123 24.9893C79.4417 25.2473 79.3029 25.5212 79.1992 25.8086C79.0551 26.2035 78.9775 26.6231 78.9775 27.0576C78.9776 27.492 79.0551 27.9109 79.1992 28.3057C79.2687 28.4986 79.3543 28.6841 79.4541 28.8643C80.2708 30.3313 82.0511 31.3477 84.1143 31.3477V31.3486C86.9509 31.3485 89.2499 29.428 89.25 27.0576C89.25 24.6872 86.951 22.7667 84.1143 22.7666ZM62.1777 19.1445C57.6116 19.4448 54.0588 21.7413 54.0586 24.5283C54.0586 27.3142 57.6115 29.6108 62.1777 29.9111V19.1445ZM64.2129 29.9111C68.7804 29.6108 72.333 27.3154 72.333 24.5283C72.3328 21.7413 68.7803 19.4448 64.2129 19.1445V29.9111ZM101.099 22.9492C98.9116 22.6936 96.5312 23.0551 95.4111 24.9795C95.1874 25.3207 95.0287 25.7065 94.9326 26.1104H104.389C104.008 24.6128 102.736 23.3889 101.099 22.9492ZM112.997 16.3428C113.075 16.9417 113.313 17.3824 113.711 17.666C114.109 17.9497 114.692 18.0918 115.455 18.0918C116.218 18.0917 116.803 17.9496 117.209 17.666C117.615 17.3824 117.856 16.9418 117.935 16.3428H119.808C119.682 17.4301 119.25 18.2697 118.509 18.8613C117.768 19.4529 116.735 19.748 115.456 19.748C114.177 19.748 113.167 19.4529 112.426 18.8613H112.423C111.682 18.2698 111.25 17.43 111.125 16.3428H112.997Z"
          />
</svg>
