<svg width="42" height="48" viewBox="0 0 42 48" fill="none" xmlns="http://www.w3.org/2000/svg">
<path d="M35.6099 11.274C31.6903 9.16289 26.5019 8 21 8C15.4981 8 10.3097 9.16289 6.3901 11.274C2.46671 13.3876 0.223331 16.2297 0.017772 19.3197H7.62939e-06V27.7449H0.017772C0.00762092 27.9008 7.62939e-06 28.0567 7.62939e-06 28.2126C7.62939e-06 31.4828 2.26877 34.5063 6.3901 36.726C8.64617 37.9413 11.3222 38.8409 14.2369 39.3866V37.3049C11.675 36.7937 9.32883 35.9899 7.3481 34.9229C3.91958 33.0763 2.03149 30.693 2.03149 28.2113C2.03149 27.3398 2.26623 26.4798 2.71668 25.6517C3.69499 26.6191 4.92454 27.511 6.3901 28.3008C9.16007 29.7934 12.5657 30.8106 16.2671 31.2796V39.7048C17.8024 39.899 19.3873 40 21 40C22.6128 40 24.1989 39.899 25.7329 39.7048V31.2796C29.4343 30.8106 32.8399 29.7934 35.6099 28.3008C37.0755 27.511 38.305 26.6203 39.2833 25.6517C39.7351 26.4811 39.9685 27.3398 39.9685 28.2113C39.9685 30.6917 38.0804 33.075 34.6519 34.9229C32.6712 35.9899 30.325 36.7937 27.7631 37.3049V39.3866C30.6778 38.8409 33.3538 37.94 35.6099 36.726C39.73 34.5063 42 31.4828 42 28.2126C42 28.0554 41.9937 27.8995 41.9822 27.7449H42V19.3197H41.9822C41.7767 16.2297 39.5333 13.3876 35.6099 11.274ZM23.7027 10.1456V29.4292C22.8145 29.4956 21.9123 29.5301 21 29.5301C20.0877 29.5301 19.1842 29.4943 18.2973 29.4292V10.1456C19.1855 10.0792 20.0877 10.0446 21 10.0446C21.9123 10.0446 22.8158 10.0804 23.7027 10.1456ZM7.34684 26.4989C5.94853 25.745 4.80653 24.9028 3.94369 24.0006C4.80653 23.0984 5.94853 22.2563 7.34684 21.5023C9.32756 20.4353 11.6737 19.6315 14.2356 19.1203V17.0386C11.321 17.5843 8.6449 18.4852 6.38883 19.6992C4.92327 20.489 3.69372 21.3809 2.71542 22.3483C2.26369 21.5189 2.03022 20.6602 2.03022 19.7874C2.03022 17.307 3.91832 14.9237 7.34684 13.0758C9.84146 11.7328 12.9109 10.8037 16.2658 10.3539V29.2196C12.9109 28.7698 9.84019 27.8407 7.34684 26.4977V26.4989ZM23.7027 37.8557C22.8145 37.9221 21.9123 37.9566 21 37.9566C20.0877 37.9566 19.1842 37.9221 18.2973 37.8557V31.4802C19.1868 31.5428 20.0889 31.5761 21 31.5761C21.9111 31.5761 22.8132 31.5441 23.7027 31.4802V37.8557ZM34.6532 26.4989C32.1586 27.842 29.0891 28.7711 25.7342 29.2209V10.3552C29.0891 10.805 32.1598 11.734 34.6532 13.0771C38.0817 14.9237 39.9698 17.307 39.9698 19.7887C39.9698 20.6602 39.7351 21.5202 39.2846 22.3496C38.3063 21.3822 37.0767 20.4902 35.6112 19.7005C33.3551 18.4852 30.679 17.5856 27.7644 17.0399V19.1216C30.3263 19.6328 32.6725 20.4366 34.6532 21.5036C36.0515 22.2576 37.1935 23.0997 38.0563 24.0019C37.1935 24.9041 36.0515 25.7463 34.6532 26.5002V26.4989Z" fill="#F4F5F5"/>
</svg>
