<svg width="580" height="332" viewBox="0 0 580 332" fill="none" xmlns="http://www.w3.org/2000/svg">
<path d="M1024 -254C1063.76 -254 1096 -236.091 1096 -214V-182C1096 -166.166 1079.44 -152.482 1055.42 -146C1079.44 -139.518 1096 -125.834 1096 -110V-78C1096 -62.166 1079.44 -48.4823 1055.42 -42C1079.44 -35.5177 1096 -21.834 1096 -6V26C1096 41.834 1079.44 55.5177 1055.42 62C1079.44 68.4823 1096 82.166 1096 98V130C1096 145.834 1079.44 159.518 1055.42 166C1079.44 172.482 1096 186.166 1096 202V234C1096 249.834 1079.44 263.518 1055.42 270C1079.44 276.482 1096 290.166 1096 306V338C1096 353.834 1079.44 367.518 1055.42 374C1079.44 380.482 1096 394.166 1096 410V442C1096 457.834 1079.44 471.518 1055.42 478C1079.44 484.482 1096 498.166 1096 514V546C1096 568.091 1063.76 586 1024 586C992.547 586 965.805 574.795 956 559.178C946.195 574.795 919.453 586 888 586C856.547 586 829.805 574.795 820 559.178C810.195 574.795 783.453 586 752 586C720.547 586 693.805 574.795 684 559.178C674.195 574.795 647.453 586 616 586C584.547 586 557.805 574.795 548 559.178C538.195 574.795 511.453 586 480 586C448.547 586 421.805 574.795 412 559.178C402.195 574.795 375.453 586 344 586C312.547 586 285.805 574.795 276 559.178C266.195 574.795 239.453 586 208 586C176.547 586 149.805 574.795 140 559.178C130.195 574.795 103.453 586 72 586C32.2355 586 0 568.091 0 546V514C0 498.166 16.5602 484.482 40.583 478C16.5602 471.518 0 457.834 0 442V410C0 394.166 16.5602 380.482 40.583 374C16.5602 367.518 0 353.834 0 338V306C0 290.166 16.5602 276.482 40.583 270C16.5602 263.518 0 249.834 0 234V202C0 186.166 16.5602 172.482 40.583 166C16.5602 159.518 0 145.834 0 130V98C0 82.1662 16.5602 68.4824 40.583 62C16.5602 55.5176 0 41.8338 0 26V-6C0 -21.8338 16.5602 -35.5176 40.583 -42C16.5602 -48.4824 0 -62.1662 0 -78V-110C0 -125.834 16.5602 -139.518 40.583 -146C16.5602 -152.482 0 -166.166 0 -182V-214C0 -236.091 32.2355 -254 72 -254C103.453 -254 130.195 -242.795 140 -227.179C149.805 -242.795 176.547 -254 208 -254C239.453 -254 266.195 -242.795 276 -227.179C285.805 -242.795 312.547 -254 344 -254C375.453 -254 402.195 -242.795 412 -227.179C421.805 -242.795 448.547 -254 480 -254C511.453 -254 538.195 -242.795 548 -227.179C557.805 -242.795 584.547 -254 616 -254C647.453 -254 674.195 -242.795 684 -227.179C693.805 -242.795 720.547 -254 752 -254C783.453 -254 810.195 -242.795 820 -227.179C829.805 -242.795 856.547 -254 888 -254C919.453 -254 946.195 -242.795 956 -227.179C965.805 -242.795 992.547 -254 1024 -254ZM136 532.341C124.031 545.205 99.8643 554 72 554C44.1357 554 19.9694 545.205 8 532.341V546C8 552.821 13.0712 560.679 24.9736 567.291C36.605 573.753 53.2156 578 72 578C90.7844 578 107.395 573.753 119.026 567.291C130.929 560.679 136 552.821 136 546V532.341ZM272 532.341C260.031 545.205 235.864 554 208 554C180.136 554 155.969 545.205 144 532.341V546C144 552.821 149.071 560.679 160.974 567.291C172.605 573.753 189.216 578 208 578C226.784 578 243.395 573.753 255.026 567.291C266.929 560.679 272 552.821 272 546V532.341ZM408 532.341C396.031 545.205 371.864 554 344 554C316.136 554 291.969 545.205 280 532.341V546C280 552.821 285.071 560.679 296.974 567.291C308.605 573.753 325.216 578 344 578C362.784 578 379.395 573.753 391.026 567.291C402.929 560.679 408 552.821 408 546V532.341ZM544 532.341C532.031 545.205 507.864 554 480 554C452.136 554 427.969 545.205 416 532.341V546C416 552.821 421.071 560.679 432.974 567.291C444.605 573.753 461.216 578 480 578C498.784 578 515.395 573.753 527.026 567.291C538.929 560.679 544 552.821 544 546V532.341ZM680 532.341C668.031 545.205 643.864 554 616 554C588.136 554 563.969 545.205 552 532.341V546C552 552.821 557.071 560.679 568.974 567.291C580.605 573.753 597.216 578 616 578C634.784 578 651.395 573.753 663.026 567.291C674.929 560.679 680 552.821 680 546V532.341ZM816 532.341C804.031 545.205 779.864 554 752 554C724.136 554 699.969 545.205 688 532.341V546C688 552.821 693.071 560.679 704.974 567.291C716.605 573.753 733.216 578 752 578C770.784 578 787.395 573.753 799.026 567.291C810.929 560.679 816 552.821 816 546V532.341ZM952 532.341C940.031 545.205 915.864 554 888 554C860.136 554 835.969 545.205 824 532.341V546C824 552.821 829.071 560.679 840.974 567.291C852.605 573.753 869.216 578 888 578C906.784 578 923.395 573.753 935.026 567.291C946.929 560.679 952 552.821 952 546V532.341ZM1088 532.341C1076.03 545.205 1051.86 554 1024 554C996.136 554 971.969 545.205 960 532.341V546C960 552.821 965.071 560.679 976.974 567.291C988.605 573.753 1005.22 578 1024 578C1042.78 578 1059.39 573.753 1071.03 567.291C1082.93 560.679 1088 552.821 1088 546V532.341ZM72 482C53.2156 482 36.605 486.247 24.9736 492.709C13.0712 499.321 8 507.179 8 514C8 520.821 13.0712 528.679 24.9736 535.291C36.605 541.753 53.2156 546 72 546C90.7844 546 107.395 541.753 119.026 535.291C130.929 528.679 136 520.821 136 514C136 507.179 130.929 499.321 119.026 492.709C107.395 486.247 90.7844 482 72 482ZM208 482C189.216 482 172.605 486.247 160.974 492.709C149.071 499.321 144 507.179 144 514C144 520.821 149.071 528.679 160.974 535.291C172.605 541.753 189.216 546 208 546C226.784 546 243.395 541.753 255.026 535.291C266.929 528.679 272 520.821 272 514C272 507.179 266.929 499.321 255.026 492.709C243.395 486.247 226.784 482 208 482ZM344 482C325.216 482 308.605 486.247 296.974 492.709C285.071 499.321 280 507.179 280 514C280 520.821 285.071 528.679 296.974 535.291C308.605 541.753 325.216 546 344 546C362.784 546 379.395 541.753 391.026 535.291C402.929 528.679 408 520.821 408 514C408 507.179 402.929 499.321 391.026 492.709C379.395 486.247 362.784 482 344 482ZM480 482C461.216 482 444.605 486.247 432.974 492.709C421.071 499.321 416 507.179 416 514C416 520.821 421.071 528.679 432.974 535.291C444.605 541.753 461.216 546 480 546C498.784 546 515.395 541.753 527.026 535.291C538.929 528.679 544 520.821 544 514C544 507.179 538.929 499.321 527.026 492.709C515.395 486.247 498.784 482 480 482ZM616 482C597.216 482 580.605 486.247 568.974 492.709C557.071 499.321 552 507.179 552 514C552 520.821 557.071 528.679 568.974 535.291C580.605 541.753 597.216 546 616 546C634.784 546 651.395 541.753 663.026 535.291C674.929 528.679 680 520.821 680 514C680 507.179 674.929 499.321 663.026 492.709C651.395 486.247 634.784 482 616 482ZM752 482C733.216 482 716.605 486.247 704.974 492.709C693.071 499.321 688 507.179 688 514C688 520.821 693.071 528.679 704.974 535.291C716.605 541.753 733.216 546 752 546C770.784 546 787.395 541.753 799.026 535.291C810.929 528.679 816 520.821 816 514C816 507.179 810.929 499.321 799.026 492.709C787.395 486.247 770.784 482 752 482ZM888 482C869.216 482 852.605 486.247 840.974 492.709C829.071 499.321 824 507.179 824 514C824 520.821 829.071 528.679 840.974 535.291C852.605 541.753 869.216 546 888 546C906.784 546 923.395 541.753 935.026 535.291C946.929 528.679 952 520.821 952 514C952 507.179 946.929 499.321 935.026 492.709C923.395 486.247 906.784 482 888 482ZM1024 482C1005.22 482 988.605 486.247 976.974 492.709C965.071 499.321 960 507.179 960 514C960 520.821 965.071 528.679 976.974 535.291C988.605 541.753 1005.22 546 1024 546C1042.78 546 1059.39 541.753 1071.03 535.291C1082.93 528.679 1088 520.821 1088 514C1088 507.179 1082.93 499.321 1071.03 492.709C1059.39 486.247 1042.78 482 1024 482ZM140 455.178C133.706 465.202 120.434 473.408 103.416 478C120.434 482.592 133.706 490.797 140 500.821C146.294 490.797 159.566 482.592 176.583 478C159.565 473.408 146.294 465.202 140 455.178ZM276 455.178C269.706 465.202 256.434 473.408 239.416 478C256.434 482.592 269.706 490.797 276 500.821C282.294 490.797 295.566 482.592 312.583 478C295.565 473.408 282.294 465.202 276 455.178ZM412 455.178C405.706 465.202 392.434 473.408 375.416 478C392.434 482.592 405.706 490.797 412 500.821C418.294 490.797 431.566 482.592 448.583 478C431.565 473.408 418.294 465.202 412 455.178ZM820 455.178C813.706 465.202 800.434 473.408 783.416 478C800.434 482.592 813.706 490.797 820 500.821C826.294 490.797 839.566 482.592 856.583 478C839.565 473.408 826.294 465.202 820 455.178ZM956 455.178C949.706 465.202 936.434 473.408 919.416 478C936.434 482.592 949.706 490.797 956 500.821C962.294 490.797 975.566 482.592 992.583 478C975.565 473.408 962.294 465.202 956 455.178ZM548 455.178C541.706 465.202 528.434 473.408 511.416 478C528.434 482.592 541.706 490.797 548 500.821C554.294 490.797 567.566 482.592 584.583 478C567.565 473.408 554.294 465.202 548 455.178ZM684 455.178C677.706 465.202 664.434 473.408 647.416 478C664.434 482.592 677.706 490.797 684 500.821C690.294 490.797 703.566 482.592 720.583 478C703.565 473.408 690.294 465.202 684 455.178ZM136 428.341C124.031 441.205 99.8643 450 72 450C44.1357 450 19.9694 441.205 8 428.341V442C8 448.821 13.0712 456.679 24.9736 463.291C36.605 469.753 53.2156 474 72 474C90.7844 474 107.395 469.753 119.026 463.291C130.929 456.679 136 448.821 136 442V428.341ZM272 428.341C260.031 441.205 235.864 450 208 450C180.136 450 155.969 441.205 144 428.341V442C144 448.821 149.071 456.679 160.974 463.291C172.605 469.753 189.216 474 208 474C226.784 474 243.395 469.753 255.026 463.291C266.929 456.679 272 448.821 272 442V428.341ZM408 428.341C396.031 441.205 371.864 450 344 450C316.136 450 291.969 441.205 280 428.341V442C280 448.821 285.071 456.679 296.974 463.291C308.605 469.753 325.216 474 344 474C362.784 474 379.395 469.753 391.026 463.291C402.929 456.679 408 448.821 408 442V428.341ZM544 428.341C532.031 441.205 507.864 450 480 450C452.136 450 427.969 441.205 416 428.341V442C416 448.821 421.071 456.679 432.974 463.291C444.605 469.753 461.216 474 480 474C498.784 474 515.395 469.753 527.026 463.291C538.929 456.679 544 448.821 544 442V428.341ZM680 428.341C668.031 441.205 643.864 450 616 450C588.136 450 563.969 441.205 552 428.341V442C552 448.821 557.071 456.679 568.974 463.291C580.605 469.753 597.216 474 616 474C634.784 474 651.395 469.753 663.026 463.291C674.929 456.679 680 448.821 680 442V428.341ZM816 428.341C804.031 441.205 779.864 450 752 450C724.136 450 699.969 441.205 688 428.341V442C688 448.821 693.071 456.679 704.974 463.291C716.605 469.753 733.216 474 752 474C770.784 474 787.395 469.753 799.026 463.291C810.929 456.679 816 448.821 816 442V428.341ZM952 428.341C940.031 441.205 915.864 450 888 450C860.136 450 835.969 441.205 824 428.341V442C824 448.821 829.071 456.679 840.974 463.291C852.605 469.753 869.216 474 888 474C906.784 474 923.395 469.753 935.026 463.291C946.929 456.679 952 448.821 952 442V428.341ZM1088 428.341C1076.03 441.205 1051.86 450 1024 450C996.136 450 971.969 441.205 960 428.341V442C960 448.821 965.071 456.679 976.974 463.291C988.605 469.753 1005.22 474 1024 474C1042.78 474 1059.39 469.753 1071.03 463.291C1082.93 456.679 1088 448.821 1088 442V428.341ZM72 378C53.2156 378 36.605 382.247 24.9736 388.709C13.0712 395.321 8 403.179 8 410C8 416.821 13.0712 424.679 24.9736 431.291C36.605 437.753 53.2156 442 72 442C90.7844 442 107.395 437.753 119.026 431.291C130.929 424.679 136 416.821 136 410C136 403.179 130.929 395.321 119.026 388.709C107.395 382.247 90.7844 378 72 378ZM208 378C189.216 378 172.605 382.247 160.974 388.709C149.071 395.321 144 403.179 144 410C144 416.821 149.071 424.679 160.974 431.291C172.605 437.753 189.216 442 208 442C226.784 442 243.395 437.753 255.026 431.291C266.929 424.679 272 416.821 272 410C272 403.179 266.929 395.321 255.026 388.709C243.395 382.247 226.784 378 208 378ZM344 378C325.216 378 308.605 382.247 296.974 388.709C285.071 395.321 280 403.179 280 410C280 416.821 285.071 424.679 296.974 431.291C308.605 437.753 325.216 442 344 442C362.784 442 379.395 437.753 391.026 431.291C402.929 424.679 408 416.821 408 410C408 403.179 402.929 395.321 391.026 388.709C379.395 382.247 362.784 378 344 378ZM480 378C461.216 378 444.605 382.247 432.974 388.709C421.071 395.321 416 403.179 416 410C416 416.821 421.071 424.679 432.974 431.291C444.605 437.753 461.216 442 480 442C498.784 442 515.395 437.753 527.026 431.291C538.929 424.679 544 416.821 544 410C544 403.179 538.929 395.321 527.026 388.709C515.395 382.247 498.784 378 480 378ZM616 378C597.216 378 580.605 382.247 568.974 388.709C557.071 395.321 552 403.179 552 410C552 416.821 557.071 424.679 568.974 431.291C580.605 437.753 597.216 442 616 442C634.784 442 651.395 437.753 663.026 431.291C674.929 424.679 680 416.821 680 410C680 403.179 674.929 395.321 663.026 388.709C651.395 382.247 634.784 378 616 378ZM752 378C733.216 378 716.605 382.247 704.974 388.709C693.071 395.321 688 403.179 688 410C688 416.821 693.071 424.679 704.974 431.291C716.605 437.753 733.216 442 752 442C770.784 442 787.395 437.753 799.026 431.291C810.929 424.679 816 416.821 816 410C816 403.179 810.929 395.321 799.026 388.709C787.395 382.247 770.784 378 752 378ZM888 378C869.216 378 852.605 382.247 840.974 388.709C829.071 395.321 824 403.179 824 410C824 416.821 829.071 424.679 840.974 431.291C852.605 437.753 869.216 442 888 442C906.784 442 923.395 437.753 935.026 431.291C946.929 424.679 952 416.821 952 410C952 403.179 946.929 395.321 935.026 388.709C923.395 382.247 906.784 378 888 378ZM1024 378C1005.22 378 988.605 382.247 976.974 388.709C965.071 395.321 960 403.179 960 410C960 416.821 965.071 424.679 976.974 431.291C988.605 437.753 1005.22 442 1024 442C1042.78 442 1059.39 437.753 1071.03 431.291C1082.93 424.679 1088 416.821 1088 410C1088 403.179 1082.93 395.321 1071.03 388.709C1059.39 382.247 1042.78 378 1024 378ZM140 351.178C133.706 361.202 120.434 369.408 103.416 374C120.434 378.592 133.706 386.797 140 396.821C146.294 386.797 159.566 378.592 176.583 374C159.565 369.408 146.294 361.202 140 351.178ZM276 351.178C269.706 361.202 256.434 369.408 239.416 374C256.434 378.592 269.706 386.797 276 396.821C282.294 386.797 295.566 378.592 312.583 374C295.565 369.408 282.294 361.202 276 351.178ZM412 351.178C405.706 361.202 392.434 369.408 375.416 374C392.434 378.592 405.706 386.797 412 396.821C418.294 386.797 431.566 378.592 448.583 374C431.565 369.408 418.294 361.202 412 351.178ZM548 351.178C541.706 361.202 528.434 369.408 511.416 374C528.434 378.592 541.706 386.797 548 396.821C554.294 386.797 567.566 378.592 584.583 374C567.565 369.408 554.294 361.202 548 351.178ZM684 351.178C677.706 361.202 664.434 369.408 647.416 374C664.434 378.592 677.706 386.797 684 396.821C690.294 386.797 703.566 378.592 720.583 374C703.565 369.408 690.294 361.202 684 351.178ZM820 351.178C813.706 361.202 800.434 369.408 783.416 374C800.434 378.592 813.706 386.797 820 396.821C826.294 386.797 839.566 378.592 856.583 374C839.565 369.408 826.294 361.202 820 351.178ZM956 351.178C949.706 361.202 936.434 369.408 919.416 374C936.434 378.592 949.706 386.797 956 396.821C962.294 386.797 975.566 378.592 992.583 374C975.565 369.408 962.294 361.202 956 351.178ZM136 324.341C124.031 337.205 99.8643 346 72 346C44.1357 346 19.9694 337.205 8 324.341V338C8 344.821 13.0712 352.679 24.9736 359.291C36.605 365.753 53.2156 370 72 370C90.7844 370 107.395 365.753 119.026 359.291C130.929 352.679 136 344.821 136 338V324.341ZM272 324.341C260.031 337.205 235.864 346 208 346C180.136 346 155.969 337.205 144 324.341V338C144 344.821 149.071 352.679 160.974 359.291C172.605 365.753 189.216 370 208 370C226.784 370 243.395 365.753 255.026 359.291C266.929 352.679 272 344.821 272 338V324.341ZM408 324.341C396.031 337.205 371.864 346 344 346C316.136 346 291.969 337.205 280 324.341V338C280 344.821 285.071 352.679 296.974 359.291C308.605 365.753 325.216 370 344 370C362.784 370 379.395 365.753 391.026 359.291C402.929 352.679 408 344.821 408 338V324.341ZM544 324.341C532.031 337.205 507.864 346 480 346C452.136 346 427.969 337.205 416 324.341V338C416 344.821 421.071 352.679 432.974 359.291C444.605 365.753 461.216 370 480 370C498.784 370 515.395 365.753 527.026 359.291C538.929 352.679 544 344.821 544 338V324.341ZM680 324.341C668.031 337.205 643.864 346 616 346C588.136 346 563.969 337.205 552 324.341V338C552 344.821 557.071 352.679 568.974 359.291C580.605 365.753 597.216 370 616 370C634.784 370 651.395 365.753 663.026 359.291C674.929 352.679 680 344.821 680 338V324.341ZM816 324.341C804.031 337.205 779.864 346 752 346C724.136 346 699.969 337.205 688 324.341V338C688 344.821 693.071 352.679 704.974 359.291C716.605 365.753 733.216 370 752 370C770.784 370 787.395 365.753 799.026 359.291C810.929 352.679 816 344.821 816 338V324.341ZM952 324.341C940.031 337.205 915.864 346 888 346C860.136 346 835.969 337.205 824 324.341V338C824 344.821 829.071 352.679 840.974 359.291C852.605 365.753 869.216 370 888 370C906.784 370 923.395 365.753 935.026 359.291C946.929 352.679 952 344.821 952 338V324.341ZM1088 324.341C1076.03 337.205 1051.86 346 1024 346C996.136 346 971.969 337.205 960 324.341V338C960 344.821 965.071 352.679 976.974 359.291C988.605 365.753 1005.22 370 1024 370C1042.78 370 1059.39 365.753 1071.03 359.291C1082.93 352.679 1088 344.821 1088 338V324.341ZM72 274C53.2156 274 36.605 278.247 24.9736 284.709C13.0712 291.321 8 299.179 8 306C8 312.821 13.0712 320.679 24.9736 327.291C36.605 333.753 53.2156 338 72 338C90.7844 338 107.395 333.753 119.026 327.291C130.929 320.679 136 312.821 136 306C136 299.179 130.929 291.321 119.026 284.709C107.395 278.247 90.7844 274 72 274ZM208 274C189.216 274 172.605 278.247 160.974 284.709C149.071 291.321 144 299.179 144 306C144 312.821 149.071 320.679 160.974 327.291C172.605 333.753 189.216 338 208 338C226.784 338 243.395 333.753 255.026 327.291C266.929 320.679 272 312.821 272 306C272 299.179 266.929 291.321 255.026 284.709C243.395 278.247 226.784 274 208 274ZM344 274C325.216 274 308.605 278.247 296.974 284.709C285.071 291.321 280 299.179 280 306C280 312.821 285.071 320.679 296.974 327.291C308.605 333.753 325.216 338 344 338C362.784 338 379.395 333.753 391.026 327.291C402.929 320.679 408 312.821 408 306C408 299.179 402.929 291.321 391.026 284.709C379.395 278.247 362.784 274 344 274ZM480 274C461.216 274 444.605 278.247 432.974 284.709C421.071 291.321 416 299.179 416 306C416 312.821 421.071 320.679 432.974 327.291C444.605 333.753 461.216 338 480 338C498.784 338 515.395 333.753 527.026 327.291C538.929 320.679 544 312.821 544 306C544 299.179 538.929 291.321 527.026 284.709C515.395 278.247 498.784 274 480 274ZM616 274C597.216 274 580.605 278.247 568.974 284.709C557.071 291.321 552 299.179 552 306C552 312.821 557.071 320.679 568.974 327.291C580.605 333.753 597.216 338 616 338C634.784 338 651.395 333.753 663.026 327.291C674.929 320.679 680 312.821 680 306C680 299.179 674.929 291.321 663.026 284.709C651.395 278.247 634.784 274 616 274ZM752 274C733.216 274 716.605 278.247 704.974 284.709C693.071 291.321 688 299.179 688 306C688 312.821 693.071 320.679 704.974 327.291C716.605 333.753 733.216 338 752 338C770.784 338 787.395 333.753 799.026 327.291C810.929 320.679 816 312.821 816 306C816 299.179 810.929 291.321 799.026 284.709C787.395 278.247 770.784 274 752 274ZM888 274C869.216 274 852.605 278.247 840.974 284.709C829.071 291.321 824 299.179 824 306C824 312.821 829.071 320.679 840.974 327.291C852.605 333.753 869.216 338 888 338C906.784 338 923.395 333.753 935.026 327.291C946.929 320.679 952 312.821 952 306C952 299.179 946.929 291.321 935.026 284.709C923.395 278.247 906.784 274 888 274ZM1024 274C1005.22 274 988.605 278.247 976.974 284.709C965.071 291.321 960 299.179 960 306C960 312.821 965.071 320.679 976.974 327.291C988.605 333.753 1005.22 338 1024 338C1042.78 338 1059.39 333.753 1071.03 327.291C1082.93 320.679 1088 312.821 1088 306C1088 299.179 1082.93 291.321 1071.03 284.709C1059.39 278.247 1042.78 274 1024 274ZM140 247.178C133.706 257.202 120.434 265.408 103.416 270C120.434 274.592 133.706 282.797 140 292.821C146.294 282.797 159.566 274.592 176.583 270C159.565 265.408 146.294 257.202 140 247.178ZM276 247.178C269.706 257.202 256.434 265.408 239.416 270C256.434 274.592 269.706 282.797 276 292.821C282.294 282.797 295.566 274.592 312.583 270C295.565 265.408 282.294 257.202 276 247.178ZM412 247.178C405.706 257.202 392.434 265.408 375.416 270C392.434 274.592 405.706 282.797 412 292.821C418.294 282.797 431.566 274.592 448.583 270C431.565 265.408 418.294 257.202 412 247.178ZM548 247.178C541.706 257.202 528.434 265.408 511.416 270C528.434 274.592 541.706 282.797 548 292.821C554.294 282.797 567.566 274.592 584.583 270C567.565 265.408 554.294 257.202 548 247.178ZM684 247.178C677.706 257.202 664.434 265.408 647.416 270C664.434 274.592 677.706 282.797 684 292.821C690.294 282.797 703.566 274.592 720.583 270C703.565 265.408 690.294 257.202 684 247.178ZM820 247.178C813.706 257.202 800.434 265.408 783.416 270C800.434 274.592 813.706 282.797 820 292.821C826.294 282.797 839.566 274.592 856.583 270C839.565 265.408 826.294 257.202 820 247.178ZM956 247.178C949.706 257.202 936.434 265.408 919.416 270C936.434 274.592 949.706 282.797 956 292.821C962.294 282.797 975.566 274.592 992.583 270C975.565 265.408 962.294 257.202 956 247.178ZM136 220.341C124.031 233.205 99.8643 242 72 242C44.1357 242 19.9694 233.205 8 220.341V234C8 240.821 13.0712 248.679 24.9736 255.291C36.605 261.753 53.2156 266 72 266C90.7844 266 107.395 261.753 119.026 255.291C130.929 248.679 136 240.821 136 234V220.341ZM272 220.341C260.031 233.205 235.864 242 208 242C180.136 242 155.969 233.205 144 220.341V234C144 240.821 149.071 248.679 160.974 255.291C172.605 261.753 189.216 266 208 266C226.784 266 243.395 261.753 255.026 255.291C266.929 248.679 272 240.821 272 234V220.341ZM408 220.341C396.031 233.205 371.864 242 344 242C316.136 242 291.969 233.205 280 220.341V234C280 240.821 285.071 248.679 296.974 255.291C308.605 261.753 325.216 266 344 266C362.784 266 379.395 261.753 391.026 255.291C402.929 248.679 408 240.821 408 234V220.341ZM544 220.341C532.031 233.205 507.864 242 480 242C452.136 242 427.969 233.205 416 220.341V234C416 240.821 421.071 248.679 432.974 255.291C444.605 261.753 461.216 266 480 266C498.784 266 515.395 261.753 527.026 255.291C538.929 248.679 544 240.821 544 234V220.341ZM680 220.341C668.031 233.205 643.864 242 616 242C588.136 242 563.969 233.205 552 220.341V234C552 240.821 557.071 248.679 568.974 255.291C580.605 261.753 597.216 266 616 266C634.784 266 651.395 261.753 663.026 255.291C674.929 248.679 680 240.821 680 234V220.341ZM816 220.341C804.031 233.205 779.864 242 752 242C724.136 242 699.969 233.205 688 220.341V234C688 240.821 693.071 248.679 704.974 255.291C716.605 261.753 733.216 266 752 266C770.784 266 787.395 261.753 799.026 255.291C810.929 248.679 816 240.821 816 234V220.341ZM952 220.341C940.031 233.205 915.864 242 888 242C860.136 242 835.969 233.205 824 220.341V234C824 240.821 829.071 248.679 840.974 255.291C852.605 261.753 869.216 266 888 266C906.784 266 923.395 261.753 935.026 255.291C946.929 248.679 952 240.821 952 234V220.341ZM1088 220.341C1076.03 233.205 1051.86 242 1024 242C996.136 242 971.969 233.205 960 220.341V234C960 240.821 965.071 248.679 976.974 255.291C988.605 261.753 1005.22 266 1024 266C1042.78 266 1059.39 261.753 1071.03 255.291C1082.93 248.679 1088 240.821 1088 234V220.341ZM72 170C53.2156 170 36.605 174.247 24.9736 180.709C13.0712 187.321 8 195.179 8 202C8 208.821 13.0712 216.679 24.9736 223.291C36.605 229.753 53.2156 234 72 234C90.7844 234 107.395 229.753 119.026 223.291C130.929 216.679 136 208.821 136 202C136 195.179 130.929 187.321 119.026 180.709C107.395 174.247 90.7844 170 72 170ZM208 170C189.216 170 172.605 174.247 160.974 180.709C149.071 187.321 144 195.179 144 202C144 208.821 149.071 216.679 160.974 223.291C172.605 229.753 189.216 234 208 234C226.784 234 243.395 229.753 255.026 223.291C266.929 216.679 272 208.821 272 202C272 195.179 266.929 187.321 255.026 180.709C243.395 174.247 226.784 170 208 170ZM344 170C325.216 170 308.605 174.247 296.974 180.709C285.071 187.321 280 195.179 280 202C280 208.821 285.071 216.679 296.974 223.291C308.605 229.753 325.216 234 344 234C362.784 234 379.395 229.753 391.026 223.291C402.929 216.679 408 208.821 408 202C408 195.179 402.929 187.321 391.026 180.709C379.395 174.247 362.784 170 344 170ZM480 170C461.216 170 444.605 174.247 432.974 180.709C421.071 187.321 416 195.179 416 202C416 208.821 421.071 216.679 432.974 223.291C444.605 229.753 461.216 234 480 234C498.784 234 515.395 229.753 527.026 223.291C538.929 216.679 544 208.821 544 202C544 195.179 538.929 187.321 527.026 180.709C515.395 174.247 498.784 170 480 170ZM616 170C597.216 170 580.605 174.247 568.974 180.709C557.071 187.321 552 195.179 552 202C552 208.821 557.071 216.679 568.974 223.291C580.605 229.753 597.216 234 616 234C634.784 234 651.395 229.753 663.026 223.291C674.929 216.679 680 208.821 680 202C680 195.179 674.929 187.321 663.026 180.709C651.395 174.247 634.784 170 616 170ZM752 170C733.216 170 716.605 174.247 704.974 180.709C693.071 187.321 688 195.179 688 202C688 208.821 693.071 216.679 704.974 223.291C716.605 229.753 733.216 234 752 234C770.784 234 787.395 229.753 799.026 223.291C810.929 216.679 816 208.821 816 202C816 195.179 810.929 187.321 799.026 180.709C787.395 174.247 770.784 170 752 170ZM888 170C869.216 170 852.605 174.247 840.974 180.709C829.071 187.321 824 195.179 824 202C824 208.821 829.071 216.679 840.974 223.291C852.605 229.753 869.216 234 888 234C906.784 234 923.395 229.753 935.026 223.291C946.929 216.679 952 208.821 952 202C952 195.179 946.929 187.321 935.026 180.709C923.395 174.247 906.784 170 888 170ZM1024 170C1005.22 170 988.605 174.247 976.974 180.709C965.071 187.321 960 195.179 960 202C960 208.821 965.071 216.679 976.974 223.291C988.605 229.753 1005.22 234 1024 234C1042.78 234 1059.39 229.753 1071.03 223.291C1082.93 216.679 1088 208.821 1088 202C1088 195.179 1082.93 187.321 1071.03 180.709C1059.39 174.247 1042.78 170 1024 170ZM140 143.178C133.706 153.202 120.434 161.408 103.416 166C120.434 170.592 133.706 178.797 140 188.821C146.294 178.797 159.566 170.592 176.583 166C159.565 161.408 146.294 153.202 140 143.178ZM276 143.178C269.706 153.202 256.434 161.408 239.416 166C256.434 170.592 269.706 178.797 276 188.821C282.294 178.797 295.566 170.592 312.583 166C295.565 161.408 282.294 153.202 276 143.178ZM412 143.178C405.706 153.202 392.434 161.408 375.416 166C392.434 170.592 405.706 178.797 412 188.821C418.294 178.797 431.566 170.592 448.583 166C431.565 161.408 418.294 153.202 412 143.178ZM548 143.178C541.706 153.202 528.434 161.408 511.416 166C528.434 170.592 541.706 178.797 548 188.821C554.294 178.797 567.566 170.592 584.583 166C567.565 161.408 554.294 153.202 548 143.178ZM684 143.178C677.706 153.202 664.434 161.408 647.416 166C664.434 170.592 677.706 178.797 684 188.821C690.294 178.797 703.566 170.592 720.583 166C703.565 161.408 690.294 153.202 684 143.178ZM820 143.178C813.706 153.202 800.434 161.408 783.416 166C800.434 170.592 813.706 178.797 820 188.821C826.294 178.797 839.566 170.592 856.583 166C839.565 161.408 826.294 153.202 820 143.178ZM956 143.178C949.706 153.202 936.434 161.408 919.416 166C936.434 170.592 949.706 178.797 956 188.821C962.294 178.797 975.566 170.592 992.583 166C975.565 161.408 962.294 153.202 956 143.178ZM136 116.341C124.031 129.205 99.8643 138 72 138C44.1357 138 19.9694 129.205 8 116.341V130C8 136.821 13.0712 144.679 24.9736 151.291C36.605 157.753 53.2156 162 72 162C90.7844 162 107.395 157.753 119.026 151.291C130.929 144.679 136 136.821 136 130V116.341ZM272 116.341C260.031 129.205 235.864 138 208 138C180.136 138 155.969 129.205 144 116.341V130C144 136.821 149.071 144.679 160.974 151.291C172.605 157.753 189.216 162 208 162C226.784 162 243.395 157.753 255.026 151.291C266.929 144.679 272 136.821 272 130V116.341ZM408 116.341C396.031 129.205 371.864 138 344 138C316.136 138 291.969 129.205 280 116.341V130C280 136.821 285.071 144.679 296.974 151.291C308.605 157.753 325.216 162 344 162C362.784 162 379.395 157.753 391.026 151.291C402.929 144.679 408 136.821 408 130V116.341ZM544 116.341C532.031 129.205 507.864 138 480 138C452.136 138 427.969 129.205 416 116.341V130C416 136.821 421.071 144.679 432.974 151.291C444.605 157.753 461.216 162 480 162C498.784 162 515.395 157.753 527.026 151.291C538.929 144.679 544 136.821 544 130V116.341ZM680 116.341C668.031 129.205 643.864 138 616 138C588.136 138 563.969 129.205 552 116.341V130C552 136.821 557.071 144.679 568.974 151.291C580.605 157.753 597.216 162 616 162C634.784 162 651.395 157.753 663.026 151.291C674.929 144.679 680 136.821 680 130V116.341ZM816 116.341C804.031 129.205 779.864 138 752 138C724.136 138 699.969 129.205 688 116.341V130C688 136.821 693.071 144.679 704.974 151.291C716.605 157.753 733.216 162 752 162C770.784 162 787.395 157.753 799.026 151.291C810.929 144.679 816 136.821 816 130V116.341ZM952 116.341C940.031 129.205 915.864 138 888 138C860.136 138 835.969 129.205 824 116.341V130C824 136.821 829.071 144.679 840.974 151.291C852.605 157.753 869.216 162 888 162C906.784 162 923.395 157.753 935.026 151.291C946.929 144.679 952 136.821 952 130V116.341ZM1088 116.341C1076.03 129.205 1051.86 138 1024 138C996.136 138 971.969 129.205 960 116.341V130C960 136.821 965.071 144.679 976.974 151.291C988.605 157.753 1005.22 162 1024 162C1042.78 162 1059.39 157.753 1071.03 151.291C1082.93 144.679 1088 136.821 1088 130V116.341ZM72 66C53.2156 66 36.605 70.2471 24.9736 76.709C13.0712 83.3214 8 91.1789 8 98C8 104.821 13.0712 112.679 24.9736 119.291C36.605 125.753 53.2156 130 72 130C90.7844 130 107.395 125.753 119.026 119.291C130.929 112.679 136 104.821 136 98C136 91.1789 130.929 83.3214 119.026 76.709C107.395 70.2471 90.7844 66 72 66ZM208 66C189.216 66 172.605 70.2471 160.974 76.709C149.071 83.3214 144 91.1789 144 98C144 104.821 149.071 112.679 160.974 119.291C172.605 125.753 189.216 130 208 130C226.784 130 243.395 125.753 255.026 119.291C266.929 112.679 272 104.821 272 98C272 91.1789 266.929 83.3214 255.026 76.709C243.395 70.2471 226.784 66 208 66ZM344 66C325.216 66 308.605 70.2471 296.974 76.709C285.071 83.3214 280 91.1789 280 98C280 104.821 285.071 112.679 296.974 119.291C308.605 125.753 325.216 130 344 130C362.784 130 379.395 125.753 391.026 119.291C402.929 112.679 408 104.821 408 98C408 91.1789 402.929 83.3214 391.026 76.709C379.395 70.2471 362.784 66 344 66ZM480 66C461.216 66 444.605 70.2471 432.974 76.709C421.071 83.3214 416 91.1789 416 98C416 104.821 421.071 112.679 432.974 119.291C444.605 125.753 461.216 130 480 130C498.784 130 515.395 125.753 527.026 119.291C538.929 112.679 544 104.821 544 98C544 91.1789 538.929 83.3214 527.026 76.709C515.395 70.2471 498.784 66 480 66ZM616 66C597.216 66 580.605 70.2471 568.974 76.709C557.071 83.3214 552 91.1789 552 98C552 104.821 557.071 112.679 568.974 119.291C580.605 125.753 597.216 130 616 130C634.784 130 651.395 125.753 663.026 119.291C674.929 112.679 680 104.821 680 98C680 91.1789 674.929 83.3214 663.026 76.709C651.395 70.2471 634.784 66 616 66ZM752 66C733.216 66 716.605 70.2471 704.974 76.709C693.071 83.3214 688 91.1789 688 98C688 104.821 693.071 112.679 704.974 119.291C716.605 125.753 733.216 130 752 130C770.784 130 787.395 125.753 799.026 119.291C810.929 112.679 816 104.821 816 98C816 91.1789 810.929 83.3214 799.026 76.709C787.395 70.2471 770.784 66 752 66ZM888 66C869.216 66 852.605 70.2471 840.974 76.709C829.071 83.3214 824 91.1789 824 98C824 104.821 829.071 112.679 840.974 119.291C852.605 125.753 869.216 130 888 130C906.784 130 923.395 125.753 935.026 119.291C946.929 112.679 952 104.821 952 98C952 91.1789 946.929 83.3214 935.026 76.709C923.395 70.2471 906.784 66 888 66ZM1024 66C1005.22 66 988.605 70.2471 976.974 76.709C965.071 83.3214 960 91.1789 960 98C960 104.821 965.071 112.679 976.974 119.291C988.605 125.753 1005.22 130 1024 130C1042.78 130 1059.39 125.753 1071.03 119.291C1082.93 112.679 1088 104.821 1088 98C1088 91.1789 1082.93 83.3214 1071.03 76.709C1059.39 70.2471 1042.78 66 1024 66ZM140 39.1777C133.706 49.2022 120.434 57.408 103.416 62C120.434 66.5919 133.706 74.7971 140 84.8213C146.294 74.7973 159.566 66.5919 176.583 62C159.565 57.4079 146.294 49.202 140 39.1777ZM276 39.1777C269.706 49.2022 256.434 57.408 239.416 62C256.434 66.5919 269.706 74.7971 276 84.8213C282.294 74.7973 295.566 66.5919 312.583 62C295.565 57.4079 282.294 49.202 276 39.1777ZM412 39.1777C405.706 49.2022 392.434 57.408 375.416 62C392.434 66.5919 405.706 74.7971 412 84.8213C418.294 74.7973 431.566 66.5919 448.583 62C431.565 57.4079 418.294 49.202 412 39.1777ZM548 39.1777C541.706 49.2022 528.434 57.408 511.416 62C528.434 66.5919 541.706 74.7971 548 84.8213C554.294 74.7973 567.566 66.5919 584.583 62C567.565 57.4079 554.294 49.202 548 39.1777ZM684 39.1777C677.706 49.2022 664.434 57.408 647.416 62C664.434 66.5919 677.706 74.7971 684 84.8213C690.294 74.7973 703.566 66.5919 720.583 62C703.565 57.4079 690.294 49.202 684 39.1777ZM820 39.1777C813.706 49.2022 800.434 57.408 783.416 62C800.434 66.5919 813.706 74.7971 820 84.8213C826.294 74.7973 839.566 66.5919 856.583 62C839.565 57.4079 826.294 49.202 820 39.1777ZM956 39.1777C949.706 49.2022 936.434 57.408 919.416 62C936.434 66.5919 949.706 74.7971 956 84.8213C962.294 74.7973 975.566 66.5919 992.583 62C975.565 57.4079 962.294 49.202 956 39.1777ZM136 12.3408C124.031 25.2053 99.8643 34 72 34C44.1357 34 19.9694 25.2053 8 12.3408V26C8 32.8211 13.0712 40.6786 24.9736 47.291C36.605 53.7529 53.2156 58 72 58C90.7844 58 107.395 53.7529 119.026 47.291C130.929 40.6786 136 32.8211 136 26V12.3408ZM272 12.3408C260.031 25.2053 235.864 34 208 34C180.136 34 155.969 25.2053 144 12.3408V26C144 32.8211 149.071 40.6786 160.974 47.291C172.605 53.7529 189.216 58 208 58C226.784 58 243.395 53.7529 255.026 47.291C266.929 40.6786 272 32.8211 272 26V12.3408ZM408 12.3408C396.031 25.2053 371.864 34 344 34C316.136 34 291.969 25.2053 280 12.3408V26C280 32.8211 285.071 40.6786 296.974 47.291C308.605 53.7529 325.216 58 344 58C362.784 58 379.395 53.7529 391.026 47.291C402.929 40.6786 408 32.8211 408 26V12.3408ZM544 12.3408C532.031 25.2053 507.864 34 480 34C452.136 34 427.969 25.2053 416 12.3408V26C416 32.8211 421.071 40.6786 432.974 47.291C444.605 53.7529 461.216 58 480 58C498.784 58 515.395 53.7529 527.026 47.291C538.929 40.6786 544 32.8211 544 26V12.3408ZM680 12.3408C668.031 25.2053 643.864 34 616 34C588.136 34 563.969 25.2053 552 12.3408V26C552 32.8211 557.071 40.6786 568.974 47.291C580.605 53.7529 597.216 58 616 58C634.784 58 651.395 53.7529 663.026 47.291C674.929 40.6786 680 32.8211 680 26V12.3408ZM816 12.3408C804.031 25.2053 779.864 34 752 34C724.136 34 699.969 25.2053 688 12.3408V26C688 32.8211 693.071 40.6786 704.974 47.291C716.605 53.7529 733.216 58 752 58C770.784 58 787.395 53.7529 799.026 47.291C810.929 40.6786 816 32.8211 816 26V12.3408ZM952 12.3408C940.031 25.2053 915.864 34 888 34C860.136 34 835.969 25.2053 824 12.3408V26C824 32.8211 829.071 40.6786 840.974 47.291C852.605 53.7529 869.216 58 888 58C906.784 58 923.395 53.7529 935.026 47.291C946.929 40.6786 952 32.8211 952 26V12.3408ZM1088 12.3408C1076.03 25.2053 1051.86 34 1024 34C996.136 34 971.969 25.2053 960 12.3408V26C960 32.8211 965.071 40.6786 976.974 47.291C988.605 53.7529 1005.22 58 1024 58C1042.78 58 1059.39 53.7529 1071.03 47.291C1082.93 40.6786 1088 32.8211 1088 26V12.3408ZM72 -38C53.2156 -38 36.605 -33.7529 24.9736 -27.291C13.0712 -20.6786 8 -12.8211 8 -6C8 0.821106 13.0712 8.67856 24.9736 15.291C36.605 21.7529 53.2156 26 72 26C90.7844 26 107.395 21.7529 119.026 15.291C130.929 8.67856 136 0.821106 136 -6C136 -12.8211 130.929 -20.6786 119.026 -27.291C107.395 -33.7529 90.7844 -38 72 -38ZM208 -38C189.216 -38 172.605 -33.7529 160.974 -27.291C149.071 -20.6786 144 -12.8211 144 -6C144 0.821106 149.071 8.67856 160.974 15.291C172.605 21.7529 189.216 26 208 26C226.784 26 243.395 21.7529 255.026 15.291C266.929 8.67856 272 0.821106 272 -6C272 -12.8211 266.929 -20.6786 255.026 -27.291C243.395 -33.7529 226.784 -38 208 -38ZM344 -38C325.216 -38 308.605 -33.7529 296.974 -27.291C285.071 -20.6786 280 -12.8211 280 -6C280 0.821106 285.071 8.67856 296.974 15.291C308.605 21.7529 325.216 26 344 26C362.784 26 379.395 21.7529 391.026 15.291C402.929 8.67856 408 0.821106 408 -6C408 -12.8211 402.929 -20.6786 391.026 -27.291C379.395 -33.7529 362.784 -38 344 -38ZM480 -38C461.216 -38 444.605 -33.7529 432.974 -27.291C421.071 -20.6786 416 -12.8211 416 -6C416 0.821106 421.071 8.67856 432.974 15.291C444.605 21.7529 461.216 26 480 26C498.784 26 515.395 21.7529 527.026 15.291C538.929 8.67856 544 0.821106 544 -6C544 -12.8211 538.929 -20.6786 527.026 -27.291C515.395 -33.7529 498.784 -38 480 -38ZM616 -38C597.216 -38 580.605 -33.7529 568.974 -27.291C557.071 -20.6786 552 -12.8211 552 -6C552 0.821106 557.071 8.67856 568.974 15.291C580.605 21.7529 597.216 26 616 26C634.784 26 651.395 21.7529 663.026 15.291C674.929 8.67856 680 0.821106 680 -6C680 -12.8211 674.929 -20.6786 663.026 -27.291C651.395 -33.7529 634.784 -38 616 -38ZM752 -38C733.216 -38 716.605 -33.7529 704.974 -27.291C693.071 -20.6786 688 -12.8211 688 -6C688 0.821106 693.071 8.67856 704.974 15.291C716.605 21.7529 733.216 26 752 26C770.784 26 787.395 21.7529 799.026 15.291C810.929 8.67856 816 0.821106 816 -6C816 -12.8211 810.929 -20.6786 799.026 -27.291C787.395 -33.7529 770.784 -38 752 -38ZM888 -38C869.216 -38 852.605 -33.7529 840.974 -27.291C829.071 -20.6786 824 -12.8211 824 -6C824 0.821106 829.071 8.67856 840.974 15.291C852.605 21.7529 869.216 26 888 26C906.784 26 923.395 21.7529 935.026 15.291C946.929 8.67856 952 0.821106 952 -6C952 -12.8211 946.929 -20.6786 935.026 -27.291C923.395 -33.7529 906.784 -38 888 -38ZM1024 -38C1005.22 -38 988.605 -33.7529 976.974 -27.291C965.071 -20.6786 960 -12.8211 960 -6C960 0.821106 965.071 8.67856 976.974 15.291C988.605 21.7529 1005.22 26 1024 26C1042.78 26 1059.39 21.7529 1071.03 15.291C1082.93 8.67856 1088 0.821106 1088 -6C1088 -12.8211 1082.93 -20.6786 1071.03 -27.291C1059.39 -33.7529 1042.78 -38 1024 -38ZM140 -64.8223C133.706 -54.7978 120.434 -46.592 103.416 -42C120.434 -37.4081 133.706 -29.2029 140 -19.1787C146.294 -29.2027 159.566 -37.408 176.583 -42C159.565 -46.5921 146.294 -54.798 140 -64.8223ZM276 -64.8223C269.706 -54.7978 256.434 -46.592 239.416 -42C256.434 -37.4081 269.706 -29.2029 276 -19.1787C282.294 -29.2027 295.566 -37.408 312.583 -42C295.565 -46.5921 282.294 -54.798 276 -64.8223ZM412 -64.8223C405.706 -54.7978 392.434 -46.592 375.416 -42C392.434 -37.4081 405.706 -29.2029 412 -19.1787C418.294 -29.2027 431.566 -37.408 448.583 -42C431.565 -46.5921 418.294 -54.798 412 -64.8223ZM548 -64.8223C541.706 -54.7978 528.434 -46.592 511.416 -42C528.434 -37.4081 541.706 -29.2029 548 -19.1787C554.294 -29.2027 567.566 -37.408 584.583 -42C567.565 -46.5921 554.294 -54.798 548 -64.8223ZM684 -64.8223C677.706 -54.7978 664.434 -46.592 647.416 -42C664.434 -37.4081 677.706 -29.2029 684 -19.1787C690.294 -29.2027 703.566 -37.408 720.583 -42C703.565 -46.5921 690.294 -54.798 684 -64.8223ZM820 -64.8223C813.706 -54.7978 800.434 -46.592 783.416 -42C800.434 -37.4081 813.706 -29.2029 820 -19.1787C826.294 -29.2027 839.566 -37.408 856.583 -42C839.565 -46.5921 826.294 -54.798 820 -64.8223ZM956 -64.8223C949.706 -54.7978 936.434 -46.592 919.416 -42C936.434 -37.4081 949.706 -29.2029 956 -19.1787C962.294 -29.2027 975.566 -37.408 992.583 -42C975.565 -46.5921 962.294 -54.798 956 -64.8223ZM136 -91.6592C124.031 -78.7947 99.8643 -70 72 -70C44.1357 -70 19.9694 -78.7947 8 -91.6592V-78C8 -71.1789 13.0712 -63.3214 24.9736 -56.709C36.605 -50.2471 53.2156 -46 72 -46C90.7844 -46 107.395 -50.2471 119.026 -56.709C130.929 -63.3214 136 -71.1789 136 -78V-91.6592ZM272 -91.6592C260.031 -78.7947 235.864 -70 208 -70C180.136 -70 155.969 -78.7947 144 -91.6592V-78C144 -71.1789 149.071 -63.3214 160.974 -56.709C172.605 -50.2471 189.216 -46 208 -46C226.784 -46 243.395 -50.2471 255.026 -56.709C266.929 -63.3214 272 -71.1789 272 -78V-91.6592ZM408 -91.6592C396.031 -78.7947 371.864 -70 344 -70C316.136 -70 291.969 -78.7947 280 -91.6592V-78C280 -71.1789 285.071 -63.3214 296.974 -56.709C308.605 -50.2471 325.216 -46 344 -46C362.784 -46 379.395 -50.2471 391.026 -56.709C402.929 -63.3214 408 -71.1789 408 -78V-91.6592ZM544 -91.6592C532.031 -78.7947 507.864 -70 480 -70C452.136 -70 427.969 -78.7947 416 -91.6592V-78C416 -71.1789 421.071 -63.3214 432.974 -56.709C444.605 -50.2471 461.216 -46 480 -46C498.784 -46 515.395 -50.2471 527.026 -56.709C538.929 -63.3214 544 -71.1789 544 -78V-91.6592ZM680 -91.6592C668.031 -78.7947 643.864 -70 616 -70C588.136 -70 563.969 -78.7947 552 -91.6592V-78C552 -71.1789 557.071 -63.3214 568.974 -56.709C580.605 -50.2471 597.216 -46 616 -46C634.784 -46 651.395 -50.2471 663.026 -56.709C674.929 -63.3214 680 -71.1789 680 -78V-91.6592ZM816 -91.6592C804.031 -78.7947 779.864 -70 752 -70C724.136 -70 699.969 -78.7947 688 -91.6592V-78C688 -71.1789 693.071 -63.3214 704.974 -56.709C716.605 -50.2471 733.216 -46 752 -46C770.784 -46 787.395 -50.2471 799.026 -56.709C810.929 -63.3214 816 -71.1789 816 -78V-91.6592ZM952 -91.6592C940.031 -78.7947 915.864 -70 888 -70C860.136 -70 835.969 -78.7947 824 -91.6592V-78C824 -71.1789 829.071 -63.3214 840.974 -56.709C852.605 -50.2471 869.216 -46 888 -46C906.784 -46 923.395 -50.2471 935.026 -56.709C946.929 -63.3214 952 -71.1789 952 -78V-91.6592ZM1088 -91.6592C1076.03 -78.7947 1051.86 -70 1024 -70C996.136 -70 971.969 -78.7947 960 -91.6592V-78C960 -71.1789 965.071 -63.3214 976.974 -56.709C988.605 -50.2471 1005.22 -46 1024 -46C1042.78 -46 1059.39 -50.2471 1071.03 -56.709C1082.93 -63.3214 1088 -71.1789 1088 -78V-91.6592ZM72 -142C53.2156 -142 36.605 -137.753 24.9736 -131.291C13.0712 -124.679 8 -116.821 8 -110C8 -103.179 13.0712 -95.3214 24.9736 -88.709C36.605 -82.2471 53.2156 -78 72 -78C90.7844 -78 107.395 -82.2471 119.026 -88.709C130.929 -95.3214 136 -103.179 136 -110C136 -116.821 130.929 -124.679 119.026 -131.291C107.395 -137.753 90.7844 -142 72 -142ZM208 -142C189.216 -142 172.605 -137.753 160.974 -131.291C149.071 -124.679 144 -116.821 144 -110C144 -103.179 149.071 -95.3214 160.974 -88.709C172.605 -82.2471 189.216 -78 208 -78C226.784 -78 243.395 -82.2471 255.026 -88.709C266.929 -95.3214 272 -103.179 272 -110C272 -116.821 266.929 -124.679 255.026 -131.291C243.395 -137.753 226.784 -142 208 -142ZM344 -142C325.216 -142 308.605 -137.753 296.974 -131.291C285.071 -124.679 280 -116.821 280 -110C280 -103.179 285.071 -95.3214 296.974 -88.709C308.605 -82.2471 325.216 -78 344 -78C362.784 -78 379.395 -82.2471 391.026 -88.709C402.929 -95.3214 408 -103.179 408 -110C408 -116.821 402.929 -124.679 391.026 -131.291C379.395 -137.753 362.784 -142 344 -142ZM480 -142C461.216 -142 444.605 -137.753 432.974 -131.291C421.071 -124.679 416 -116.821 416 -110C416 -103.179 421.071 -95.3214 432.974 -88.709C444.605 -82.2471 461.216 -78 480 -78C498.784 -78 515.395 -82.2471 527.026 -88.709C538.929 -95.3214 544 -103.179 544 -110C544 -116.821 538.929 -124.679 527.026 -131.291C515.395 -137.753 498.784 -142 480 -142ZM616 -142C597.216 -142 580.605 -137.753 568.974 -131.291C557.071 -124.679 552 -116.821 552 -110C552 -103.179 557.071 -95.3214 568.974 -88.709C580.605 -82.2471 597.216 -78 616 -78C634.784 -78 651.395 -82.2471 663.026 -88.709C674.929 -95.3214 680 -103.179 680 -110C680 -116.821 674.929 -124.679 663.026 -131.291C651.395 -137.753 634.784 -142 616 -142ZM752 -142C733.216 -142 716.605 -137.753 704.974 -131.291C693.071 -124.679 688 -116.821 688 -110C688 -103.179 693.071 -95.3214 704.974 -88.709C716.605 -82.2471 733.216 -78 752 -78C770.784 -78 787.395 -82.2471 799.026 -88.709C810.929 -95.3214 816 -103.179 816 -110C816 -116.821 810.929 -124.679 799.026 -131.291C787.395 -137.753 770.784 -142 752 -142ZM888 -142C869.216 -142 852.605 -137.753 840.974 -131.291C829.071 -124.679 824 -116.821 824 -110C824 -103.179 829.071 -95.3214 840.974 -88.709C852.605 -82.2471 869.216 -78 888 -78C906.784 -78 923.395 -82.2471 935.026 -88.709C946.929 -95.3214 952 -103.179 952 -110C952 -116.821 946.929 -124.679 935.026 -131.291C923.395 -137.753 906.784 -142 888 -142ZM1024 -142C1005.22 -142 988.605 -137.753 976.974 -131.291C965.071 -124.679 960 -116.821 960 -110C960 -103.179 965.071 -95.3214 976.974 -88.709C988.605 -82.2471 1005.22 -78 1024 -78C1042.78 -78 1059.39 -82.2471 1071.03 -88.709C1082.93 -95.3214 1088 -103.179 1088 -110C1088 -116.821 1082.93 -124.679 1071.03 -131.291C1059.39 -137.753 1042.78 -142 1024 -142ZM140 -168.822C133.706 -158.798 120.434 -150.592 103.416 -146C120.434 -141.408 133.706 -133.203 140 -123.179C146.294 -133.203 159.566 -141.408 176.583 -146C159.565 -150.592 146.294 -158.798 140 -168.822ZM276 -168.822C269.706 -158.798 256.434 -150.592 239.416 -146C256.434 -141.408 269.706 -133.203 276 -123.179C282.294 -133.203 295.566 -141.408 312.583 -146C295.565 -150.592 282.294 -158.798 276 -168.822ZM412 -168.822C405.706 -158.798 392.434 -150.592 375.416 -146C392.434 -141.408 405.706 -133.203 412 -123.179C418.294 -133.203 431.566 -141.408 448.583 -146C431.565 -150.592 418.294 -158.798 412 -168.822ZM548 -168.822C541.706 -158.798 528.434 -150.592 511.416 -146C528.434 -141.408 541.706 -133.203 548 -123.179C554.294 -133.203 567.566 -141.408 584.583 -146C567.565 -150.592 554.294 -158.798 548 -168.822ZM684 -168.822C677.706 -158.798 664.434 -150.592 647.416 -146C664.434 -141.408 677.706 -133.203 684 -123.179C690.294 -133.203 703.566 -141.408 720.583 -146C703.565 -150.592 690.294 -158.798 684 -168.822ZM820 -168.822C813.706 -158.798 800.434 -150.592 783.416 -146C800.434 -141.408 813.706 -133.203 820 -123.179C826.294 -133.203 839.566 -141.408 856.583 -146C839.565 -150.592 826.294 -158.798 820 -168.822ZM956 -168.822C949.706 -158.798 936.434 -150.592 919.416 -146C936.434 -141.408 949.706 -133.203 956 -123.179C962.294 -133.203 975.566 -141.408 992.583 -146C975.565 -150.592 962.294 -158.798 956 -168.822ZM136 -195.659C124.031 -182.795 99.8643 -174 72 -174C44.1357 -174 19.9694 -182.795 8 -195.659V-182C8 -175.179 13.0712 -167.321 24.9736 -160.709C36.605 -154.247 53.2156 -150 72 -150C90.7844 -150 107.395 -154.247 119.026 -160.709C130.929 -167.321 136 -175.179 136 -182V-195.659ZM272 -195.659C260.031 -182.795 235.864 -174 208 -174C180.136 -174 155.969 -182.795 144 -195.659V-182C144 -175.179 149.071 -167.321 160.974 -160.709C172.605 -154.247 189.216 -150 208 -150C226.784 -150 243.395 -154.247 255.026 -160.709C266.929 -167.321 272 -175.179 272 -182V-195.659ZM408 -195.659C396.031 -182.795 371.864 -174 344 -174C316.136 -174 291.969 -182.795 280 -195.659V-182C280 -175.179 285.071 -167.321 296.974 -160.709C308.605 -154.247 325.216 -150 344 -150C362.784 -150 379.395 -154.247 391.026 -160.709C402.929 -167.321 408 -175.179 408 -182V-195.659ZM544 -195.659C532.031 -182.795 507.864 -174 480 -174C452.136 -174 427.969 -182.795 416 -195.659V-182C416 -175.179 421.071 -167.321 432.974 -160.709C444.605 -154.247 461.216 -150 480 -150C498.784 -150 515.395 -154.247 527.026 -160.709C538.929 -167.321 544 -175.179 544 -182V-195.659ZM680 -195.659C668.031 -182.795 643.864 -174 616 -174C588.136 -174 563.969 -182.795 552 -195.659V-182C552 -175.179 557.071 -167.321 568.974 -160.709C580.605 -154.247 597.216 -150 616 -150C634.784 -150 651.395 -154.247 663.026 -160.709C674.929 -167.321 680 -175.179 680 -182V-195.659ZM816 -195.659C804.031 -182.795 779.864 -174 752 -174C724.136 -174 699.969 -182.795 688 -195.659V-182C688 -175.179 693.071 -167.321 704.974 -160.709C716.605 -154.247 733.216 -150 752 -150C770.784 -150 787.395 -154.247 799.026 -160.709C810.929 -167.321 816 -175.179 816 -182V-195.659ZM952 -195.659C940.031 -182.795 915.864 -174 888 -174C860.136 -174 835.969 -182.795 824 -195.659V-182C824 -175.179 829.071 -167.321 840.974 -160.709C852.605 -154.247 869.216 -150 888 -150C906.784 -150 923.395 -154.247 935.026 -160.709C946.929 -167.321 952 -175.179 952 -182V-195.659ZM1088 -195.659C1076.03 -182.795 1051.86 -174 1024 -174C996.136 -174 971.969 -182.795 960 -195.659V-182C960 -175.179 965.071 -167.321 976.974 -160.709C988.605 -154.247 1005.22 -150 1024 -150C1042.78 -150 1059.39 -154.247 1071.03 -160.709C1082.93 -167.321 1088 -175.179 1088 -182V-195.659ZM72 -246C53.2156 -246 36.605 -241.753 24.9736 -235.291C13.0712 -228.679 8 -220.821 8 -214C8 -207.179 13.0712 -199.321 24.9736 -192.709C36.605 -186.247 53.2156 -182 72 -182C90.7844 -182 107.395 -186.247 119.026 -192.709C130.929 -199.321 136 -207.179 136 -214C136 -220.821 130.929 -228.679 119.026 -235.291C107.395 -241.753 90.7844 -246 72 -246ZM208 -246C189.216 -246 172.605 -241.753 160.974 -235.291C149.071 -228.679 144 -220.821 144 -214C144 -207.179 149.071 -199.321 160.974 -192.709C172.605 -186.247 189.216 -182 208 -182C226.784 -182 243.395 -186.247 255.026 -192.709C266.929 -199.321 272 -207.179 272 -214C272 -220.821 266.929 -228.679 255.026 -235.291C243.395 -241.753 226.784 -246 208 -246ZM344 -246C325.216 -246 308.605 -241.753 296.974 -235.291C285.071 -228.679 280 -220.821 280 -214C280 -207.179 285.071 -199.321 296.974 -192.709C308.605 -186.247 325.216 -182 344 -182C362.784 -182 379.395 -186.247 391.026 -192.709C402.929 -199.321 408 -207.179 408 -214C408 -220.821 402.929 -228.679 391.026 -235.291C379.395 -241.753 362.784 -246 344 -246ZM480 -246C461.216 -246 444.605 -241.753 432.974 -235.291C421.071 -228.679 416 -220.821 416 -214C416 -207.179 421.071 -199.321 432.974 -192.709C444.605 -186.247 461.216 -182 480 -182C498.784 -182 515.395 -186.247 527.026 -192.709C538.929 -199.321 544 -207.179 544 -214C544 -220.821 538.929 -228.679 527.026 -235.291C515.395 -241.753 498.784 -246 480 -246ZM616 -246C597.216 -246 580.605 -241.753 568.974 -235.291C557.071 -228.679 552 -220.821 552 -214C552 -207.179 557.071 -199.321 568.974 -192.709C580.605 -186.247 597.216 -182 616 -182C634.784 -182 651.395 -186.247 663.026 -192.709C674.929 -199.321 680 -207.179 680 -214C680 -220.821 674.929 -228.679 663.026 -235.291C651.395 -241.753 634.784 -246 616 -246ZM752 -246C733.216 -246 716.605 -241.753 704.974 -235.291C693.071 -228.679 688 -220.821 688 -214C688 -207.179 693.071 -199.321 704.974 -192.709C716.605 -186.247 733.216 -182 752 -182C770.784 -182 787.395 -186.247 799.026 -192.709C810.929 -199.321 816 -207.179 816 -214C816 -220.821 810.929 -228.679 799.026 -235.291C787.395 -241.753 770.784 -246 752 -246ZM888 -246C869.216 -246 852.605 -241.753 840.974 -235.291C829.071 -228.679 824 -220.821 824 -214C824 -207.179 829.071 -199.321 840.974 -192.709C852.605 -186.247 869.216 -182 888 -182C906.784 -182 923.395 -186.247 935.026 -192.709C946.929 -199.321 952 -207.179 952 -214C952 -220.821 946.929 -228.679 935.026 -235.291C923.395 -241.753 906.784 -246 888 -246ZM1024 -246C1005.22 -246 988.605 -241.753 976.974 -235.291C965.071 -228.679 960 -220.821 960 -214C960 -207.179 965.071 -199.321 976.974 -192.709C988.605 -186.247 1005.22 -182 1024 -182C1042.78 -182 1059.39 -186.247 1071.03 -192.709C1082.93 -199.321 1088 -207.179 1088 -214C1088 -220.821 1082.93 -228.679 1071.03 -235.291C1059.39 -241.753 1042.78 -246 1024 -246Z" fill="#3A5F53"/>
</svg>
