<svg width="86" height="80" viewBox="0 0 86 80" fill="none" xmlns="http://www.w3.org/2000/svg">
<path d="M86 0.814663L84.0492 16.1568C79.2804 15.8269 75.5955 16.7067 72.9943 18.7963C70.3932 20.8859 68.6591 23.8004 67.7921 27.5397C66.925 31.279 66.7624 35.5132 67.3044 40.2424H86V80H50.0718V36.943C50.0718 23.9654 53.1065 14.1772 59.1758 7.57841C65.3535 0.869655 74.2949 -1.38493 86 0.814663ZM35.9282 0.814663L33.9773 16.1568C29.2086 15.8269 25.5236 16.7067 22.9225 18.7963C20.3214 20.8859 18.5873 23.8004 17.7202 27.5397C16.8532 31.279 16.6906 35.5132 17.2325 40.2424H35.9282V80H0V36.943C0 23.9654 3.03466 14.1772 9.10397 7.57841C15.2817 0.869655 24.2231 -1.38493 35.9282 0.814663Z" fill="#3A5F53"/>
</svg>
